PathFileType	4	(X/Y/Z)	./resultDataOpenSim/trcMotMarkerGrf/sub09/qtm-13-01.trc
DataRate	CameraRate	NumFrames	NumMarkers	Units	OrigDataRate	OrigDataStartFrame	OrigNumFrames
250.000000	250.000000	7	24	m	250.000000	470	536
Frame#	Time	L.Toe.Tip			R.Toe.Tip			L.Ankle.Lat			R.Ankle.Lat			L.Ankle.Med			R.Ankle.Med			L.Heel			R.Heel			L.Knee.Lat			R.Knee.Lat			L.Knee.Med			R.Knee.Med			L.Thigh.Upper			R.Thigh.Upper			L.ASIS			R.ASIS			V.Sacral			L.Acromium			R.Acromium			C7			L.Elbow			R.Elbow			L.Wrist.Lat			R.Wrist.Lat
		X1	Y1	Z1	X2	Y2	Z2	X3	Y3	Z3	X4	Y4	Z4	X5	Y5	Z5	X6	Y6	Z6	X7	Y7	Z7	X8	Y8	Z8	X9	Y9	Z9	X10	Y10	Z10	X11	Y11	Z11	X12	Y12	Z12	X13	Y13	Z13	X14	Y14	Z14	X15	Y15	Z15	X16	Y16	Z16	X17	Y17	Z17	X18	Y18	Z18	X19	Y19	Z19	X20	Y20	Z20	X21	Y21	Z21	X22	Y22	Z22	X23	Y23	Z23	X24	Y24	Z24

470	1.876	1.8047235	0.10989609	-0.025298482	1.0671999	0.04140342	0.083837617	1.6534199	0.081379834	-0.055460351	0.92782685	0.093400457	0.11915038	1.6779785	0.10550462	0.038280667	0.96260563	0.131454	0.032478743	1.6081072	0.019389201	0.00069974349	0.86079791	0.09438642	0.063245268	1.5189187	0.478916	-0.090006532	1.1820306	0.48237461	0.19629455	1.5231307	0.47870523	0.02892894	1.1770671	0.4731707	0.070065271	1.3328869	0.85043375	-0.12863768	1.2527612	0.87747309	0.23738799	1.4025266	0.94157394	-0.061650099	1.3784049	0.95424112	0.18256719	1.2246444	0.99913334	0.035126354	1.3593136	1.3991133	-0.12657825	1.3509475	1.4182701	0.20450766	1.2875408	1.4556183	0.037523599	1.188348	1.0759631	-0.18019856	1.1893946	1.0979668	0.30557274	1.2918944	0.83407465	-0.21957858	1.3219894	0.85696575	0.33938438
471	1.88	1.8081972	0.10456224	-0.024607426	1.0675163	0.041591845	0.084100167	1.6561935	0.079473973	-0.054732885	0.92908049	0.095275479	0.12009624	1.6809262	0.10325894	0.03907525	0.96417073	0.13297388	0.03343669	1.6090848	0.018982878	0.0013037714	0.86196695	0.097176193	0.064175664	1.5259272	0.4782488	-0.090128428	1.1875154	0.48182905	0.1969613	1.5299813	0.47882877	0.028585749	1.182088	0.47233533	0.070469187	1.3393235	0.84975423	-0.12928616	1.258906	0.87660389	0.23676968	1.4090543	0.94092776	-0.06223033	1.3848134	0.95328282	0.18209898	1.2310248	0.99811419	0.0346009	1.3650029	1.3983958	-0.12708196	1.3563559	1.4173439	0.20401348	1.292909	1.4547018	0.03696189	1.1945229	1.0750518	-0.18093971	1.1944416	1.0971691	0.30479725	1.2983385	0.83323282	-0.22020937	1.3266909	0.85604083	0.33906335
472	1.884	1.8119586	0.098417418	-0.023820968	1.0678033	0.041769127	0.084413804	1.6590446	0.077887927	-0.053982605	0.93043895	0.09720336	0.12111895	1.6841367	0.10135369	0.039863647	0.96583155	0.1345383	0.034449498	1.6098623	0.019182546	0.0021553773	0.86323786	0.10006651	0.065151501	1.5328187	0.47755925	-0.090330285	1.193572	0.48128505	0.19777735	1.5368365	0.4789871	0.028243905	1.1871972	0.47151891	0.070909949	1.3459157	0.84909261	-0.12994571	1.2651097	0.87573413	0.23611653	1.4155541	0.94033376	-0.062756503	1.3912827	0.95234762	0.18163415	1.2373864	0.99716547	0.034082841	1.3706961	1.3976833	-0.12760038	1.3617549	1.4164628	0.20352081	1.2983094	1.4537922	0.03635851	1.2007285	1.0741539	-0.18167713	1.1997185	1.0964496	0.30412142	1.3048279	0.83240349	-0.22085372	1.3313489	0.85513838	0.33873707
473	1.888	1.8158747	0.091923948	-0.022977136	1.068062	0.041937233	0.084693256	1.6619883	0.076713657	-0.053367143	0.93185262	0.099184721	0.12222134	1.6876157	0.099778156	0.040506611	0.96758102	0.13615034	0.035535786	1.6106215	0.019940907	0.003069904	0.86461705	0.10306944	0.06620963	1.5395906	0.4769464	-0.090573212	1.1997335	0.48075206	0.19859283	1.5436897	0.47917749	0.027905426	1.1923356	0.47070554	0.071348545	1.352681	0.8484711	-0.13060526	1.2714091	0.87485812	0.23543077	1.4219959	0.9398079	-0.063228854	1.3978059	0.95143177	0.18117047	1.2437023	0.9963425	0.033557329	1.376392	1.3969895	-0.12813998	1.3671549	1.4156241	0.20302482	1.3037456	1.4529162	0.035710339	1.206973	1.0732687	-0.18241082	1.2051278	1.0957743	0.30348023	1.3113637	0.83158794	-0.22151026	1.3359864	0.85425439	0.33840718
474	1.892	1.8196565	0.085803398	-0.022149704	1.0683389	0.042119369	0.084823091	1.6649704	0.075903676	-0.053008782	0.93328257	0.10120736	0.12342538	1.6911371	0.098426613	0.040926641	0.96941611	0.13781249	0.036709313	1.61152	0.021002504	0.0037333342	0.86611562	0.1061959	0.067390129	1.5462842	0.47655182	-0.090819011	1.2054937	0.48023777	0.19925121	1.5505341	0.47939719	0.02757235	1.1975136	0.46983253	0.071771284	1.3596103	0.84792245	-0.13123887	1.2778153	0.87396374	0.23472876	1.4283635	0.939357	-0.063661935	1.4043685	0.95052803	0.18070382	1.2499716	0.99568281	0.033014058	1.3820925	1.396329	-0.12870558	1.3725616	1.414834	0.20252782	1.3092215	1.4521471	0.035039823	1.2132551	1.0723877	-0.18315577	1.210601	1.0951167	0.30282576	1.317941	0.83078781	-0.22217732	1.3406212	0.85338426	0.33806423
475	1.896	1.8230381	0.080547255	-0.02136065	1.0686855	0.042338302	0.084768428	1.6678968	0.07531842	-0.05291972	0.93475107	0.10326135	0.12475803	1.6943479	0.097202315	0.041142389	0.97134425	0.13952536	0.037974455	1.6125725	0.022070479	0.0038599871	0.86774805	0.10945138	0.068722203	1.5530399	0.47654259	-0.091054793	1.2107105	0.47974325	0.19970558	1.5573629	0.47964354	0.027246762	1.2029095	0.4688054	0.072243039	1.3666644	0.84748496	-0.13184039	1.2843032	0.87304591	0.23402748	1.434649	0.93898909	-0.064074592	1.4109395	0.94963525	0.18022748	1.2562052	0.99518198	0.032454261	1.3878002	1.3957145	-0.12929663	1.3779697	1.4141076	0.20203852	1.314751	1.4515469	0.034383036	1.2195712	1.0715032	-0.18392797	1.2160837	1.0944787	0.30212771	1.3245535	0.83000576	-0.22285523	1.3452624	0.8525313	0.33770005
476	1.9	1.825895	0.076200759	-0.020535519	1.0691111	0.042585066	0.084636122	1.6706716	0.074843728	-0.053012858	0.9363513	0.10537674	0.1262143	1.6969932	0.09608337	0.041231544	0.97338372	0.1412905	0.039327551	1.6136727	0.023014629	0.0033320875	0.86952845	0.11283707	0.070210028	1.5601131	0.47706697	-0.091293383	1.2156674	0.47926317	0.20003876	1.5641691	0.47991386	0.026930794	1.2087325	0.46759624	0.072851034	1.3737889	0.84720046	-0.1324337	1.2908194	0.87211317	0.2333363	1.4408528	0.93872297	-0.064483055	1.4174829	0.94877134	0.17973302	1.2624011	0.994802	0.031892266	1.3935155	1.3951565	-0.12990381	1.3833659	1.4134574	0.20156431	1.320347	1.4511176	0.033750693	1.2259289	1.0706241	-0.18472653	1.221524	1.09388	0.30136438	1.331202	0.82924822	-0.22354411	1.349922	0.85171217	0.33731963
